<svg width="28" height="28" viewBox="0 0 28 28" fill="none" xmlns="http://www.w3.org/2000/svg">
<path d="M0.575195 28.0001H10.0683C14.5698 28.0001 18.219 24.3509 18.219 19.8494H8.72588C4.22438 19.8494 0.575195 23.4986 0.575195 28.0001Z" fill="#F22BB2"/>
<path d="M1 8.15069V20.137C5.5015 20.137 9.15069 16.4878 9.15069 11.9863V0C4.64919 0 1 3.64919 1 8.15069Z" fill="#8C30F5"/>
<path d="M27.4246 0H17.9314C13.4299 0 9.78076 3.64919 9.78076 8.15068H19.2739C23.7754 8.15068 27.4246 4.5015 27.4246 0Z" fill="#FE9A22"/>
<path d="M27.4246 19.3698V7.38354C22.9231 7.38354 19.2739 11.0327 19.2739 15.5342V27.5205C23.7754 27.5205 27.4246 23.8713 27.4246 19.3698Z" fill="#2EC5CE"/>
</svg>
